<?xml version="1.0" encoding="UTF-8"?>
<svg xmlns="http://www.w3.org/2000/svg" xmlns:xlink="http://www.w3.org/1999/xlink" width="56px" height="56px" viewBox="0 0 56 56" version="1.1">
<g id="surface1">
<path style=" stroke:none;fill-rule:nonzero;fill:rgb(45.882353%,30.980392%,99.607843%);fill-opacity:1;" d="M 28 3.199219 C 29.5 3.199219 30.800781 3.5 32.101562 4.199219 C 39.300781 8.199219 46.398438 12.101562 53.601562 16.101562 C 54.800781 16.800781 55.699219 17.800781 56 19.199219 C 56.398438 21 55.5 22.699219 53.898438 23.699219 C 51.800781 24.898438 49.699219 26 47.601562 27.199219 C 45 28.601562 42.398438 30.101562 39.800781 31.5 C 39.199219 31.898438 39 31.800781 39.101562 31.101562 C 39.300781 29.601562 38.699219 28.601562 37.601562 27.601562 C 34.898438 25 32.199219 22.300781 29.601562 19.601562 C 29 19 28.300781 18.699219 27.398438 19 C 26.199219 19.398438 25.800781 21 26.699219 22 C 27.101562 22.5 27.601562 22.898438 28 23.300781 C 30.300781 25.601562 32.5 27.800781 34.800781 30.101562 C 35.199219 30.5 35.398438 30.898438 35.300781 31.398438 C 35.300781 32 35.300781 32.699219 35.300781 33.300781 C 35.300781 33.699219 35.199219 34 34.800781 34.199219 C 34 34.601562 33.101562 35.101562 32.300781 35.601562 C 29.5 37.101562 26.699219 37.101562 23.898438 35.601562 C 20.398438 33.699219 16.898438 31.699219 13.398438 29.800781 C 9.800781 27.898438 6.398438 26 2.898438 24.101562 C 1.601562 23.398438 0.601562 22.5 0.199219 21 C -0.300781 19.101562 0.601562 17.199219 2.398438 16.199219 C 4.699219 14.898438 7 13.601562 9.300781 12.398438 C 14.101562 9.699219 19 7 23.800781 4.398438 C 25.101562 3.601562 26.5 3.300781 28 3.199219 Z M 28 3.199219 "/>
<path style=" stroke:none;fill-rule:nonzero;fill:rgb(45.882353%,30.980392%,99.607843%);fill-opacity:1;" d="M 25.5 47.5 C 22.800781 47.5 20.101562 47.5 17.300781 47.5 C 12.800781 47.5 8.699219 44.101562 7.898438 39.699219 C 7.699219 38.699219 7.699219 37.601562 7.699219 36.601562 C 7.699219 34.601562 7.699219 32.5 7.699219 30.5 C 7.699219 29.699219 7.800781 29.699219 8.398438 30.101562 C 13.101562 32.699219 17.800781 35.300781 22.5 37.898438 C 26.101562 39.898438 29.699219 39.800781 33.398438 37.898438 C 33.800781 37.699219 34.199219 37.5 34.601562 37.199219 C 35 36.898438 35.199219 37.101562 35.199219 37.5 C 35.199219 39.300781 35.199219 41.101562 35.199219 42.898438 C 35.199219 44.199219 35.199219 45.601562 35.199219 46.898438 C 35.199219 47.398438 35.300781 47.601562 35.800781 47.5 C 36.601562 47.5 37.398438 47.5 38.199219 47.5 C 38.699219 47.5 38.898438 47.300781 38.898438 46.699219 C 38.898438 43 38.898438 39.300781 38.898438 35.601562 C 38.898438 35 39.101562 34.699219 39.601562 34.398438 C 42.199219 33 44.800781 31.5 47.398438 30.101562 C 48.101562 29.699219 48.101562 29.800781 48.101562 30.5 C 48.101562 32.898438 48.101562 35.300781 48.101562 37.699219 C 48.101562 42.699219 44.699219 46.601562 39.800781 47.5 C 39 47.699219 39 47.699219 39 48.5 C 39 49.199219 39 49.898438 39 50.601562 C 39 51.800781 38.199219 52.699219 37 52.800781 C 35.898438 52.800781 35 51.898438 34.898438 50.699219 C 34.898438 49.898438 34.898438 49.101562 34.898438 48.300781 C 34.898438 47.800781 34.800781 47.601562 34.199219 47.601562 C 31.398438 47.5 28.5 47.5 25.5 47.5 Z M 25.5 47.5 "/>
</g>
</svg>
