<?xml version="1.0" encoding="UTF-8"?>
<svg xmlns="http://www.w3.org/2000/svg" xmlns:xlink="http://www.w3.org/1999/xlink" width="112px" height="29px" viewBox="0 0 112 29" version="1.1">
<g id="surface1">
<path style=" stroke:none;fill-rule:nonzero;fill:rgb(11.372549%,11.372549%,10.588235%);fill-opacity:1;" d="M 40.058594 15.78125 C 40.058594 16.960938 39.839844 17.96875 39.390625 18.789062 C 38.941406 19.621094 38.339844 20.25 37.570312 20.679688 C 36.800781 21.121094 35.941406 21.328125 34.988281 21.328125 C 34.03125 21.328125 33.160156 21.109375 32.398438 20.671875 C 31.628906 20.230469 31.03125 19.601562 30.589844 18.769531 C 30.148438 17.941406 29.921875 16.941406 29.921875 15.761719 C 29.921875 14.578125 30.140625 13.570312 30.589844 12.75 C 31.03125 11.921875 31.640625 11.289062 32.398438 10.851562 C 33.160156 10.410156 34.03125 10.199219 34.988281 10.199219 C 35.949219 10.199219 36.808594 10.421875 37.570312 10.851562 C 38.339844 11.289062 38.941406 11.921875 39.390625 12.75 C 39.839844 13.589844 40.058594 14.589844 40.058594 15.78125 Z M 37.738281 15.78125 C 37.738281 15.019531 37.628906 14.371094 37.398438 13.839844 C 37.171875 13.320312 36.851562 12.921875 36.441406 12.648438 C 36.03125 12.378906 35.539062 12.238281 34.988281 12.238281 C 34.441406 12.238281 33.949219 12.378906 33.539062 12.648438 C 33.128906 12.921875 32.808594 13.320312 32.578125 13.839844 C 32.351562 14.371094 32.238281 15.011719 32.238281 15.78125 C 32.238281 16.550781 32.351562 17.191406 32.578125 17.71875 C 32.808594 18.25 33.128906 18.640625 33.539062 18.921875 C 33.949219 19.191406 34.441406 19.328125 34.988281 19.328125 C 35.539062 19.328125 36.03125 19.191406 36.441406 18.921875 C 36.851562 18.648438 37.171875 18.25 37.398438 17.71875 C 37.628906 17.191406 37.738281 16.539062 37.738281 15.78125 Z M 34.199219 17.429688 L 36.148438 17.429688 L 37.128906 18.691406 L 38.089844 19.808594 L 39.898438 22.078125 L 37.761719 22.078125 L 36.511719 20.550781 L 35.871094 19.640625 Z M 34.199219 17.429688 "/>
<path style=" stroke:none;fill-rule:nonzero;fill:rgb(11.372549%,11.372549%,10.588235%);fill-opacity:1;" d="M 46.929688 17.730469 L 46.929688 13.070312 L 49.179688 13.070312 L 49.179688 21.191406 L 47.019531 21.191406 L 47.019531 19.71875 L 46.941406 19.71875 C 46.761719 20.199219 46.449219 20.578125 46.03125 20.871094 C 45.609375 21.160156 45.089844 21.300781 44.480469 21.300781 C 43.941406 21.300781 43.460938 21.179688 43.050781 20.929688 C 42.640625 20.679688 42.320312 20.328125 42.078125 19.878906 C 41.851562 19.429688 41.730469 18.878906 41.730469 18.25 L 41.730469 13.078125 L 43.980469 13.078125 L 43.980469 17.851562 C 43.980469 18.328125 44.109375 18.710938 44.371094 18.988281 C 44.621094 19.269531 44.960938 19.410156 45.390625 19.410156 C 45.660156 19.410156 45.910156 19.351562 46.148438 19.21875 C 46.390625 19.101562 46.578125 18.910156 46.71875 18.660156 C 46.859375 18.398438 46.941406 18.101562 46.929688 17.730469 Z M 46.929688 17.730469 "/>
<path style=" stroke:none;fill-rule:nonzero;fill:rgb(11.372549%,11.372549%,10.588235%);fill-opacity:1;" d="M 52.109375 12.019531 C 51.78125 12.019531 51.488281 11.910156 51.25 11.679688 C 51.011719 11.460938 50.890625 11.191406 50.890625 10.871094 C 50.890625 10.558594 51.011719 10.289062 51.25 10.070312 C 51.488281 9.851562 51.769531 9.730469 52.109375 9.730469 C 52.441406 9.730469 52.730469 9.839844 52.96875 10.070312 C 53.210938 10.289062 53.328125 10.558594 53.328125 10.871094 C 53.328125 11.179688 53.210938 11.449219 52.96875 11.679688 C 52.730469 11.910156 52.449219 12.019531 52.109375 12.019531 Z M 50.980469 21.191406 L 50.980469 13.070312 L 53.230469 13.070312 L 53.230469 21.191406 Z M 50.980469 21.191406 "/>
<path style=" stroke:none;fill-rule:nonzero;fill:rgb(11.372549%,11.372549%,10.588235%);fill-opacity:1;" d="M 58.699219 21.351562 C 57.871094 21.351562 57.148438 21.171875 56.558594 20.820312 C 55.960938 20.46875 55.5 19.96875 55.191406 19.339844 C 54.871094 18.710938 54.710938 17.980469 54.710938 17.160156 C 54.710938 16.328125 54.871094 15.601562 55.191406 14.96875 C 55.511719 14.339844 55.96875 13.851562 56.570312 13.488281 C 57.171875 13.140625 57.871094 12.960938 58.699219 12.960938 C 59.410156 12.960938 60.03125 13.089844 60.558594 13.351562 C 61.089844 13.609375 61.511719 13.96875 61.820312 14.429688 C 62.128906 14.890625 62.300781 15.441406 62.328125 16.070312 L 60.199219 16.070312 C 60.140625 15.660156 59.980469 15.339844 59.730469 15.089844 C 59.46875 14.839844 59.140625 14.71875 58.730469 14.71875 C 58.378906 14.71875 58.078125 14.808594 57.820312 15 C 57.558594 15.191406 57.359375 15.460938 57.210938 15.820312 C 57.070312 16.179688 56.988281 16.609375 56.988281 17.128906 C 56.988281 17.648438 57.058594 18.089844 57.199219 18.449219 C 57.339844 18.808594 57.539062 19.089844 57.808594 19.28125 C 58.070312 19.46875 58.378906 19.570312 58.730469 19.570312 C 58.988281 19.570312 59.21875 19.519531 59.429688 19.410156 C 59.640625 19.300781 59.808594 19.148438 59.941406 18.949219 C 60.078125 18.75 60.160156 18.5 60.210938 18.21875 L 62.339844 18.21875 C 62.300781 18.839844 62.140625 19.390625 61.839844 19.859375 C 61.539062 20.328125 61.121094 20.699219 60.589844 20.960938 C 60.058594 21.21875 59.421875 21.351562 58.699219 21.351562 Z M 58.699219 21.351562 "/>
<path style=" stroke:none;fill-rule:nonzero;fill:rgb(11.372549%,11.372549%,10.588235%);fill-opacity:1;" d="M 63.78125 21.191406 L 63.78125 10.359375 L 66.03125 10.359375 L 66.03125 21.191406 Z M 65.820312 18.851562 L 65.828125 16.148438 L 66.160156 16.148438 L 68.761719 13.070312 L 71.351562 13.070312 L 67.851562 17.148438 L 67.320312 17.148438 Z M 68.851562 21.191406 L 66.460938 17.648438 L 67.960938 16.058594 L 71.488281 21.191406 Z M 68.851562 21.191406 "/>
<path style=" stroke:none;fill-rule:nonzero;fill:rgb(11.372549%,11.372549%,10.588235%);fill-opacity:1;" d="M 72.480469 21.191406 L 72.480469 10.359375 L 74.769531 10.359375 L 74.769531 19.300781 L 79.410156 19.300781 L 79.410156 21.191406 Z M 72.480469 21.191406 "/>
<path style=" stroke:none;fill-rule:nonzero;fill:rgb(11.372549%,11.372549%,10.588235%);fill-opacity:1;" d="M 84.589844 21.351562 C 83.75 21.351562 83.039062 21.179688 82.441406 20.839844 C 81.839844 20.5 81.378906 20.019531 81.050781 19.390625 C 80.730469 18.761719 80.558594 18.019531 80.558594 17.171875 C 80.558594 16.328125 80.71875 15.601562 81.050781 14.96875 C 81.371094 14.339844 81.828125 13.851562 82.421875 13.488281 C 83.011719 13.140625 83.699219 12.960938 84.5 12.960938 C 85.039062 12.960938 85.539062 13.050781 86 13.21875 C 86.460938 13.390625 86.871094 13.648438 87.21875 13.988281 C 87.570312 14.328125 87.839844 14.761719 88.03125 15.28125 C 88.21875 15.800781 88.320312 16.398438 88.320312 17.089844 L 88.320312 17.710938 L 81.460938 17.710938 L 81.460938 16.308594 L 86.199219 16.308594 C 86.199219 15.988281 86.128906 15.699219 85.988281 15.449219 C 85.851562 15.199219 85.648438 15 85.410156 14.859375 C 85.160156 14.71875 84.871094 14.648438 84.550781 14.648438 C 84.210938 14.648438 83.910156 14.730469 83.640625 14.890625 C 83.378906 15.050781 83.171875 15.261719 83.019531 15.519531 C 82.871094 15.78125 82.800781 16.070312 82.789062 16.398438 L 82.789062 17.730469 C 82.789062 18.128906 82.859375 18.480469 83.011719 18.769531 C 83.160156 19.058594 83.371094 19.289062 83.648438 19.449219 C 83.929688 19.609375 84.25 19.691406 84.628906 19.691406 C 84.878906 19.691406 85.109375 19.660156 85.320312 19.578125 C 85.53125 19.5 85.710938 19.398438 85.851562 19.261719 C 86 19.121094 86.109375 18.949219 86.191406 18.738281 L 88.269531 18.878906 C 88.160156 19.378906 87.949219 19.820312 87.621094 20.191406 C 87.289062 20.558594 86.871094 20.851562 86.359375 21.058594 C 85.851562 21.25 85.261719 21.351562 84.589844 21.351562 Z M 84.589844 21.351562 "/>
<path style=" stroke:none;fill-rule:nonzero;fill:rgb(11.372549%,11.372549%,10.588235%);fill-opacity:1;" d="M 92.101562 21.339844 C 91.578125 21.339844 91.121094 21.25 90.710938 21.070312 C 90.300781 20.890625 89.980469 20.621094 89.75 20.261719 C 89.519531 19.898438 89.398438 19.460938 89.398438 18.921875 C 89.398438 18.46875 89.480469 18.089844 89.648438 17.78125 C 89.820312 17.46875 90.039062 17.230469 90.328125 17.039062 C 90.621094 16.851562 90.941406 16.710938 91.308594 16.621094 C 91.671875 16.519531 92.058594 16.460938 92.460938 16.421875 C 92.929688 16.371094 93.308594 16.320312 93.601562 16.28125 C 93.890625 16.238281 94.101562 16.171875 94.230469 16.078125 C 94.359375 15.988281 94.429688 15.859375 94.429688 15.691406 L 94.429688 15.660156 C 94.429688 15.328125 94.320312 15.070312 94.109375 14.878906 C 93.898438 14.699219 93.601562 14.609375 93.21875 14.609375 C 92.808594 14.609375 92.488281 14.699219 92.25 14.878906 C 92.011719 15.058594 91.851562 15.28125 91.769531 15.550781 L 89.691406 15.378906 C 89.800781 14.890625 90 14.460938 90.308594 14.101562 C 90.621094 13.738281 91.019531 13.460938 91.511719 13.261719 C 92 13.058594 92.570312 12.96875 93.21875 12.96875 C 93.671875 12.96875 94.101562 13.019531 94.519531 13.128906 C 94.929688 13.238281 95.300781 13.398438 95.628906 13.621094 C 95.949219 13.839844 96.210938 14.128906 96.390625 14.46875 C 96.578125 14.820312 96.671875 15.230469 96.671875 15.71875 L 96.671875 21.199219 L 94.53125 21.199219 L 94.53125 20.070312 L 94.46875 20.070312 C 94.339844 20.320312 94.160156 20.550781 93.949219 20.738281 C 93.730469 20.929688 93.46875 21.078125 93.160156 21.191406 C 92.859375 21.289062 92.5 21.339844 92.101562 21.339844 Z M 92.75 19.789062 C 93.078125 19.789062 93.371094 19.71875 93.628906 19.589844 C 93.890625 19.460938 94.078125 19.28125 94.230469 19.050781 C 94.371094 18.820312 94.449219 18.570312 94.449219 18.28125 L 94.449219 17.421875 C 94.378906 17.46875 94.28125 17.511719 94.160156 17.539062 C 94.039062 17.578125 93.898438 17.609375 93.75 17.640625 C 93.601562 17.671875 93.449219 17.699219 93.300781 17.71875 C 93.148438 17.738281 93.011719 17.761719 92.890625 17.78125 C 92.628906 17.820312 92.390625 17.878906 92.199219 17.96875 C 92 18.050781 91.851562 18.171875 91.738281 18.308594 C 91.628906 18.449219 91.578125 18.628906 91.578125 18.839844 C 91.578125 19.148438 91.691406 19.378906 91.921875 19.539062 C 92.121094 19.710938 92.398438 19.789062 92.75 19.789062 Z M 92.75 19.789062 "/>
<path style=" stroke:none;fill-rule:nonzero;fill:rgb(11.372549%,11.372549%,10.588235%);fill-opacity:1;" d="M 98.429688 21.191406 L 98.429688 13.070312 L 100.609375 13.070312 L 100.609375 14.488281 L 100.691406 14.488281 C 100.839844 13.988281 101.089844 13.601562 101.441406 13.339844 C 101.789062 13.078125 102.191406 12.949219 102.648438 12.949219 C 102.761719 12.949219 102.878906 12.960938 103.011719 12.96875 C 103.140625 12.980469 103.261719 13 103.351562 13.03125 L 103.351562 15.03125 C 103.238281 15 103.101562 14.96875 102.910156 14.949219 C 102.71875 14.929688 102.550781 14.910156 102.398438 14.910156 C 102.070312 14.910156 101.769531 14.980469 101.511719 15.121094 C 101.25 15.261719 101.050781 15.460938 100.898438 15.710938 C 100.75 15.960938 100.679688 16.261719 100.679688 16.589844 L 100.679688 21.179688 L 98.429688 21.179688 Z M 98.429688 21.191406 "/>
<path style=" stroke:none;fill-rule:nonzero;fill:rgb(11.372549%,11.372549%,10.588235%);fill-opacity:1;" d="M 106.769531 16.488281 L 106.769531 21.191406 L 104.519531 21.191406 L 104.519531 13.070312 L 106.671875 13.070312 L 106.671875 14.5 L 106.769531 14.5 C 106.949219 14.03125 107.25 13.648438 107.671875 13.378906 C 108.089844 13.101562 108.609375 12.96875 109.210938 12.96875 C 109.769531 12.96875 110.269531 13.089844 110.679688 13.339844 C 111.101562 13.589844 111.429688 13.941406 111.660156 14.398438 C 111.890625 14.859375 112.011719 15.398438 112.011719 16.03125 L 112.011719 21.199219 L 109.761719 21.199219 L 109.761719 16.429688 C 109.761719 15.929688 109.640625 15.539062 109.378906 15.261719 C 109.121094 14.980469 108.769531 14.839844 108.320312 14.839844 C 108.019531 14.839844 107.75 14.898438 107.519531 15.039062 C 107.289062 15.171875 107.109375 15.359375 106.980469 15.609375 C 106.828125 15.851562 106.769531 16.148438 106.769531 16.488281 Z M 106.769531 16.488281 "/>
<path style=" stroke:none;fill-rule:nonzero;fill:rgb(45.882353%,30.980392%,99.607843%);fill-opacity:1;" d="M 13.800781 2.289062 C 14.53125 2.300781 15.199219 2.460938 15.828125 2.800781 C 19.359375 4.75 22.890625 6.699219 26.421875 8.648438 C 27.03125 8.988281 27.460938 9.46875 27.589844 10.160156 C 27.761719 11.058594 27.371094 11.910156 26.53125 12.390625 C 25.511719 12.980469 24.46875 13.539062 23.429688 14.109375 C 22.140625 14.820312 20.851562 15.53125 19.570312 16.238281 C 19.261719 16.410156 19.179688 16.390625 19.21875 16.039062 C 19.308594 15.320312 19.011719 14.820312 18.5 14.339844 C 17.148438 13.050781 15.851562 11.71875 14.539062 10.398438 C 14.230469 10.089844 13.878906 9.980469 13.480469 10.121094 C 12.871094 10.339844 12.699219 11.121094 13.148438 11.609375 C 13.351562 11.828125 13.570312 12.039062 13.78125 12.25 C 14.890625 13.359375 16 14.480469 17.121094 15.578125 C 17.308594 15.761719 17.390625 15.949219 17.378906 16.210938 C 17.359375 16.519531 17.371094 16.828125 17.378906 17.140625 C 17.390625 17.359375 17.320312 17.488281 17.121094 17.589844 C 16.699219 17.800781 16.300781 18.050781 15.878906 18.269531 C 14.488281 19 13.101562 19.011719 11.71875 18.261719 C 9.988281 17.320312 8.269531 16.359375 6.539062 15.398438 C 4.828125 14.460938 3.128906 13.511719 1.410156 12.570312 C 0.769531 12.21875 0.25 11.789062 0.0585938 11.050781 C -0.179688 10.128906 0.25 9.179688 1.148438 8.671875 C 2.289062 8.050781 3.429688 7.429688 4.570312 6.800781 C 6.960938 5.480469 9.351562 4.160156 11.738281 2.828125 C 12.390625 2.480469 13.078125 2.300781 13.800781 2.289062 Z M 13.800781 2.289062 "/>
<path style=" stroke:none;fill-rule:nonzero;fill:rgb(45.882353%,30.980392%,99.607843%);fill-opacity:1;" d="M 12.601562 24.140625 C 11.261719 24.140625 9.921875 24.140625 8.578125 24.140625 C 6.359375 24.140625 4.359375 22.46875 3.949219 20.289062 C 3.851562 19.78125 3.828125 19.261719 3.839844 18.738281 C 3.851562 17.730469 3.839844 16.71875 3.839844 15.710938 C 3.839844 15.328125 3.871094 15.308594 4.199219 15.5 C 6.511719 16.78125 8.820312 18.070312 11.140625 19.328125 C 12.921875 20.300781 14.71875 20.28125 16.5 19.339844 C 16.699219 19.230469 16.910156 19.121094 17.101562 19 C 17.320312 18.871094 17.378906 18.941406 17.378906 19.171875 C 17.378906 20.050781 17.378906 20.929688 17.378906 21.808594 C 17.378906 22.46875 17.390625 23.128906 17.378906 23.789062 C 17.378906 24.019531 17.441406 24.121094 17.679688 24.109375 C 18.070312 24.089844 18.460938 24.101562 18.851562 24.109375 C 19.121094 24.121094 19.21875 24.011719 19.21875 23.738281 C 19.210938 21.910156 19.21875 20.078125 19.210938 18.238281 C 19.210938 17.941406 19.308594 17.769531 19.570312 17.628906 C 20.859375 16.929688 22.148438 16.210938 23.441406 15.5 C 23.769531 15.320312 23.800781 15.328125 23.800781 15.710938 C 23.800781 16.890625 23.808594 18.070312 23.800781 19.25 C 23.789062 21.699219 22.128906 23.660156 19.71875 24.101562 C 19.308594 24.179688 19.308594 24.179688 19.308594 24.609375 C 19.308594 24.960938 19.308594 25.308594 19.308594 25.660156 C 19.300781 26.28125 18.890625 26.71875 18.328125 26.730469 C 17.769531 26.738281 17.328125 26.300781 17.308594 25.691406 C 17.300781 25.289062 17.289062 24.890625 17.308594 24.488281 C 17.320312 24.230469 17.238281 24.140625 16.96875 24.140625 C 15.5 24.140625 14.050781 24.140625 12.601562 24.140625 Z M 12.601562 24.140625 "/>
</g>
</svg>
