<?xml version="1.0" encoding="UTF-8"?>
<svg xmlns="http://www.w3.org/2000/svg" xmlns:xlink="http://www.w3.org/1999/xlink" width="75px" height="75px" viewBox="0 0 75 75" version="1.1">
<g id="surface1">
<path style=" stroke:none;fill-rule:nonzero;fill:rgb(45.882353%,30.980392%,99.607843%);fill-opacity:1;" d="M 23.605469 7.5 C 9.976562 7.734375 8.582031 17.183594 11.320312 28.035156 C 10.789062 28.34375 9.917969 29.308594 10.136719 31.03125 C 10.546875 34.238281 11.9375 35.050781 12.824219 35.117188 C 13.160156 38.113281 16.375 41.941406 17.5 42.5 L 17.5 47.5 C 15 55 0 47.5 0 67.5 L 30 67.5 C 30 58.628906 34.972656 54.808594 39.121094 52.613281 C 35.226562 51.246094 31.191406 51.078125 30 47.5 L 30 42.5 C 31.125 41.941406 34.335938 38.113281 34.675781 35.121094 C 34.878906 34.414062 35.035156 31.882812 35.035156 31.3125 C 35.035156 28.191406 34.988281 21.738281 36.941406 16.683594 C 36.261719 13.289062 34.476562 10.425781 30.652344 10.046875 C 29.632812 8.355469 27.011719 7.5 23.605469 7.5 Z M 55.308594 10 C 52.496094 10 50.328125 12.5 50.328125 12.5 C 34.222656 12.5 43.164062 39.882812 38.433594 43.816406 C 38.433594 43.816406 40.949219 47.542969 50 47.542969 L 50 50.730469 C 47.5 57.5 35 55 35 67.5 L 75 67.5 C 75 55 62.5 57.5 60 50.730469 L 60 47.515625 C 69.097656 47.515625 71.207031 43.910156 71.207031 43.910156 C 66.113281 39.730469 74.996094 10 55.308594 10 Z M 55.308594 10 "/>
</g>
</svg>
