<?xml version="1.0" encoding="UTF-8"?>
<svg xmlns="http://www.w3.org/2000/svg" xmlns:xlink="http://www.w3.org/1999/xlink" width="114px" height="114px" viewBox="0 0 114 114" version="1.1">
<g id="surface1">
<path style=" stroke:none;fill-rule:nonzero;fill:rgb(45.882353%,30.980392%,99.607843%);fill-opacity:1;" d="M 110.921875 48.207031 L 107.789062 44.320312 C 106.21875 42.367188 105.417969 39.910156 105.542969 37.402344 L 105.792969 32.421875 C 106.117188 25.882812 101.769531 19.902344 95.453125 18.191406 L 90.640625 16.886719 C 88.214844 16.234375 86.125 14.710938 84.753906 12.613281 L 82.027344 8.433594 C 78.449219 2.957031 71.414062 0.671875 65.300781 3 L 60.636719 4.777344 C 58.292969 5.667969 55.707031 5.667969 53.363281 4.777344 L 48.699219 3 C 42.585938 0.671875 35.550781 2.957031 31.972656 8.433594 L 29.246094 12.613281 C 27.871094 14.710938 25.785156 16.234375 23.359375 16.886719 L 18.542969 18.191406 C 12.230469 19.902344 7.882812 25.882812 8.207031 32.421875 L 8.457031 37.402344 C 8.582031 39.910156 7.78125 42.367188 6.207031 44.320312 L 3.078125 48.207031 C -1.027344 53.300781 -1.027344 60.699219 3.078125 65.792969 L 6.207031 69.679688 C 7.675781 71.503906 8.46875 73.761719 8.46875 76.089844 C 8.46875 76.460938 8.484375 76.035156 8.207031 81.578125 C 7.882812 88.117188 12.230469 94.097656 18.542969 95.808594 L 23.359375 97.113281 C 25.785156 97.765625 27.871094 99.289062 29.246094 101.386719 L 31.972656 105.566406 C 34.609375 109.605469 39.125 111.90625 43.761719 111.90625 C 50.511719 111.90625 54.054688 106.714844 60.636719 109.222656 L 65.300781 111 C 71.414062 113.328125 78.449219 111.042969 82.027344 105.566406 L 84.753906 101.386719 C 86.125 99.289062 88.214844 97.765625 90.640625 97.113281 L 95.453125 95.808594 C 101.769531 94.097656 106.117188 88.117188 105.792969 81.578125 L 105.542969 76.597656 C 105.417969 74.089844 106.21875 71.632812 107.789062 69.679688 L 110.921875 65.792969 C 115.027344 60.699219 115.027344 53.300781 110.921875 48.207031 Z M 57 98.578125 C 34.160156 98.578125 15.421875 79.835938 15.421875 57 C 15.421875 34.160156 34.164062 15.421875 57 15.421875 C 79.839844 15.421875 98.578125 34.164062 98.578125 57 C 98.578125 79.839844 79.835938 98.578125 57 98.578125 Z M 57 19.222656 C 36.167969 19.222656 19.222656 36.167969 19.222656 57 C 19.222656 77.832031 36.167969 94.777344 57 94.777344 C 77.832031 94.777344 94.777344 77.832031 94.777344 57 C 94.777344 36.167969 77.832031 19.222656 57 19.222656 Z M 58.234375 49.160156 C 58.234375 48.109375 59.085938 47.257812 60.136719 47.257812 L 69.546875 47.257812 C 70.59375 47.257812 71.445312 48.109375 71.445312 49.160156 C 71.445312 50.210938 70.59375 51.058594 69.546875 51.058594 L 62.039062 51.058594 L 62.039062 55.097656 L 66.410156 55.097656 C 67.457031 55.097656 68.308594 55.949219 68.308594 57 C 68.308594 58.050781 67.457031 58.902344 66.410156 58.902344 L 62.039062 58.902344 L 62.039062 62.941406 L 69.546875 62.941406 C 70.59375 62.941406 71.445312 63.792969 71.445312 64.839844 C 71.445312 65.890625 70.59375 66.742188 69.546875 66.742188 L 60.136719 66.742188 C 59.085938 66.742188 58.234375 65.890625 58.234375 64.839844 Z M 42.554688 49.160156 C 42.554688 48.109375 43.40625 47.257812 44.453125 47.257812 L 49.945312 47.257812 C 53.152344 47.257812 55.765625 49.871094 55.765625 53.078125 C 55.765625 55.476562 54.308594 57.539062 52.234375 58.429688 L 55.492188 63.863281 C 56.257812 65.136719 55.324219 66.742188 53.867188 66.742188 C 53.21875 66.742188 52.589844 66.414062 52.234375 65.820312 L 47.53125 57.976562 C 46.769531 56.714844 47.683594 55.097656 49.160156 55.097656 L 49.945312 55.097656 C 51.058594 55.097656 51.964844 54.195312 51.964844 53.078125 C 51.964844 51.964844 51.058594 51.058594 49.945312 51.058594 L 46.355469 51.058594 L 46.355469 64.839844 C 46.355469 65.890625 45.503906 66.742188 44.453125 66.742188 C 43.40625 66.742188 42.554688 65.890625 42.554688 64.839844 Z M 38.183594 51.058594 L 30.675781 51.058594 L 30.675781 55.097656 L 36.613281 55.097656 C 37.664062 55.097656 38.515625 55.949219 38.515625 57 C 38.515625 58.050781 37.664062 58.902344 36.613281 58.902344 L 30.675781 58.902344 L 30.675781 64.839844 C 30.675781 65.890625 29.824219 66.742188 28.773438 66.742188 C 27.722656 66.742188 26.871094 65.890625 26.871094 64.839844 L 26.871094 49.160156 C 26.871094 48.109375 27.722656 47.257812 28.773438 47.257812 L 38.183594 47.257812 C 39.230469 47.257812 40.082031 48.109375 40.082031 49.160156 C 40.082031 50.210938 39.230469 51.058594 38.183594 51.058594 Z M 71.253906 78.859375 L 42.742188 78.859375 C 41.695312 78.859375 40.84375 78.007812 40.84375 76.957031 C 40.84375 75.910156 41.695312 75.058594 42.742188 75.058594 L 71.253906 75.058594 C 72.304688 75.058594 73.15625 75.910156 73.15625 76.957031 C 73.15625 78.007812 72.304688 78.859375 71.253906 78.859375 Z M 87.128906 49.160156 C 87.128906 50.210938 86.277344 51.058594 85.226562 51.058594 L 77.71875 51.058594 L 77.71875 55.097656 L 82.089844 55.097656 C 83.140625 55.097656 83.992188 55.949219 83.992188 57 C 83.992188 58.050781 83.140625 58.902344 82.089844 58.902344 L 77.71875 58.902344 L 77.71875 62.941406 L 85.226562 62.941406 C 86.277344 62.941406 87.128906 63.792969 87.128906 64.839844 C 87.128906 65.890625 86.277344 66.742188 85.226562 66.742188 L 75.816406 66.742188 C 74.769531 66.742188 73.917969 65.890625 73.917969 64.839844 L 73.917969 49.160156 C 73.917969 48.109375 74.769531 47.257812 75.816406 47.257812 L 85.226562 47.257812 C 86.277344 47.257812 87.128906 48.109375 87.128906 49.160156 Z M 87.128906 49.160156 "/>
</g>
</svg>
