<?xml version="1.0" encoding="UTF-8"?>
<svg xmlns="http://www.w3.org/2000/svg" xmlns:xlink="http://www.w3.org/1999/xlink" width="115px" height="115px" viewBox="0 0 115 115" version="1.1">
<g id="surface1">
<path style=" stroke:none;fill-rule:nonzero;fill:rgb(45.882353%,30.980392%,99.607843%);fill-opacity:1;" d="M 57.5 7.667969 C 48.175781 7.667969 15.332031 11.5 15.332031 49.832031 L 15.332031 69 C 15.332031 74.8125 17.878906 78.953125 20.476562 81.226562 C 22.0625 82.613281 22.722656 82.632812 23.785156 83.054688 C 25.167969 86.628906 33.980469 107.042969 57.058594 107.3125 C 57.203125 107.328125 57.351562 107.335938 57.5 107.332031 C 57.652344 107.335938 57.804688 107.328125 57.957031 107.3125 C 81.023438 107.035156 89.832031 86.628906 91.214844 83.054688 C 92.277344 82.632812 92.9375 82.613281 94.523438 81.226562 C 97.121094 78.953125 99.667969 74.8125 99.667969 69 L 99.667969 49.832031 C 99.667969 34.5 92 15.332031 76.667969 15.332031 C 76.667969 15.332031 72.832031 7.667969 57.5 7.667969 Z M 76.667969 30.667969 C 76.667969 30.667969 88.167969 41.246094 88.167969 65.167969 L 92 65.167969 L 92 69 C 92 72.769531 90.710938 74.378906 89.476562 75.460938 C 88.242188 76.542969 87.238281 76.777344 87.238281 76.777344 L 85.195312 77.289062 L 84.527344 79.285156 C 84.527344 79.285156 77.945312 99.667969 57.5 99.667969 C 37.054688 99.667969 30.472656 79.285156 30.472656 79.285156 L 29.804688 77.289062 L 27.761719 76.777344 C 27.761719 76.777344 26.757812 76.542969 25.523438 75.460938 C 24.289062 74.378906 23 72.769531 23 69 L 23 65.167969 L 26.832031 65.167969 C 26.832031 38.332031 65.167969 57.5 76.667969 30.667969 Z M 40.25 61.332031 C 37.074219 61.332031 34.5 63.90625 34.5 67.082031 C 34.5 70.257812 37.074219 72.832031 40.25 72.832031 C 43.425781 72.832031 46 70.257812 46 67.082031 C 46 63.90625 43.425781 61.332031 40.25 61.332031 Z M 74.75 61.332031 C 71.574219 61.332031 69 63.90625 69 67.082031 C 69 70.257812 71.574219 72.832031 74.75 72.832031 C 77.925781 72.832031 80.5 70.257812 80.5 67.082031 C 80.5 63.90625 77.925781 61.332031 74.75 61.332031 Z M 74.75 61.332031 "/>
</g>
</svg>
